{
  "accessors": [
    {
      "bufferView": 2,
      "componentType": 5126,
      "count": 65534,
      "max": [
        0.2685219943523407,
        0.9500359892845154,
        0.8264989852905273
      ],
      "min": [
        -0.2551319897174835,
        -0.9540619850158691,
        -0.8254950046539307
      ],
      "type": "VEC3"
    },
    {
      "bufferView": 2,
      "byteOffset": 786408,
      "componentType": 5126,
      "count": 65534,
      "max": [
        0.999987006187439,
        0.9994474649429321,
        0.9999614953994751
      ],
      "min": [
        -0.9999996423721313,
        -0.9999960660934448,
        -0.9999997615814209
      ],
      "type": "VEC3"
    },
    {
      "bufferView": 3,
      "componentType": 5126,
      "count": 65534,
      "max": [
        0.9999926686286926,
        0.9999963045120239,
        0.9999994039535522,
        1.0
      ],
      "min": [
        -0.9999794363975525,
        -0.9990045428276062,
        -0.9999310374259949,
        -1.0
      ],
      "type": "VEC4"
    },
    {
      "bufferView": 1,
      "componentType": 5126,
      "count": 65534,
      "max": [
        0.998894989490509,
        0.9988909959793091
      ],
      "min": [
        0.0010989999864250422,
        0.0010989999864250422
      ],
      "type": "VEC2"
    },
    {
      "bufferView": 0,
      "componentType": 5125,
      "count": 258528,
      "type": "SCALAR"
    },
    {
      "bufferView": 2,
      "byteOffset": 1572816,
      "componentType": 5126,
      "count": 36689,
      "max": [
        0.26429399847984314,
        0.9211710095405579,
        0.8106769919395447
      ],
      "min": [
        -0.2583119869232178,
        -0.9412379860877991,
        -0.8346760272979736
      ],
      "type": "VEC3"
    },
    {
      "bufferView": 2,
      "byteOffset": 2013084,
      "componentType": 5126,
      "count": 36689,
      "max": [
        0.9999234676361084,
        0.9999294281005859,
        0.9998405575752258
      ],
      "min": [
        -0.9999654293060303,
        -0.9998577833175659,
        -0.9998732805252075
      ],
      "type": "VEC3"
    },
    {
      "bufferView": 3,
      "byteOffset": 1048544,
      "componentType": 5126,
      "count": 36689,
      "max": [
        0.9999922513961792,
        0.9999809265136719,
        0.9999557137489319,
        1.0
      ],
      "min": [
        -0.9999372959136963,
        -0.9983408451080322,
        -0.999973475933075,
        1.0
      ],
      "type": "VEC4"
    },
    {
      "bufferView": 1,
      "byteOffset": 524272,
      "componentType": 5126,
      "count": 36689,
      "max": [
        0.9989010095596313,
        0.9988899827003479
      ],
      "min": [
        0.0010989999864250422,
        0.0010989999864250422
      ],
      "type": "VEC2"
    },
    {
      "bufferView": 0,
      "byteOffset": 1034112,
      "componentType": 5125,
      "count": 101469,
      "type": "SCALAR"
    }
  ],
  "asset": {
    "extras": {
      "author": "Jonathan.Burton.Peters.Jr. (https://sketchfab.com/Jonathan.Burton.Peters.Jr.)",
      "license": "CC-BY-4.0 (http://creativecommons.org/licenses/by/4.0/)",
      "source": "https://sketchfab.com/3d-models/black-and-white-cat-walking-cf261766794547dd994e5fa235fcc106",
      "title": "black and white cat walking"
    },
    "generator": "Sketchfab-16.67.0",
    "version": "2.0"
  },
  "bufferViews": [
    {
      "buffer": 0,
      "byteLength": 1439988,
      "name": "floatBufferViews",
      "target": 34963
    },
    {
      "buffer": 0,
      "byteLength": 817784,
      "byteOffset": 1439988,
      "byteStride": 8,
      "name": "floatBufferViews",
      "target": 34962
    },
    {
      "buffer": 0,
      "byteLength": 2453352,
      "byteOffset": 2257772,
      "byteStride": 12,
      "name": "floatBufferViews",
      "target": 34962
    },
    {
      "buffer": 0,
      "byteLength": 1635568,
      "byteOffset": 4711124,
      "byteStride": 16,
      "name": "floatBufferViews",
      "target": 34962
    }
  ],
  "buffers": [
    {
      "byteLength": 6346692,
      "uri": "scene.bin"
    }
  ],
  "images": [
    {
      "uri": "textures/material_0_baseColor.png"
    },
    {
      "uri": "textures/material_0_metallicRoughness.png"
    },
    {
      "uri": "textures/material_0_normal.png"
    }
  ],
  "materials": [
    {
      "doubleSided": true,
      "name": "material_0",
      "normalTexture": {
        "index": 2
      },
      "pbrMetallicRoughness": {
        "baseColorTexture": {
          "index": 0
        },
        "metallicRoughnessTexture": {
          "index": 1
        }
      }
    }
  ],
  "meshes": [
    {
      "name": "Object_0",
      "primitives": [
        {
          "attributes": {
            "NORMAL": 1,
            "POSITION": 0,
            "TANGENT": 2,
            "TEXCOORD_0": 3
          },
          "indices": 4,
          "material": 0,
          "mode": 4
        }
      ]
    },
    {
      "name": "Object_1",
      "primitives": [
        {
          "attributes": {
            "NORMAL": 6,
            "POSITION": 5,
            "TANGENT": 7,
            "TEXCOORD_0": 8
          },
          "indices": 9,
          "material": 0,
          "mode": 4
        }
      ]
    }
  ],
  "nodes": [
    {
      "children": [
        1
      ],
      "matrix": [
        1.0,
        0.0,
        0.0,
        0.0,
        0.0,
        2.220446049250313e-16,
        -1.0,
        0.0,
        0.0,
        1.0,
        2.220446049250313e-16,
        0.0,
        0.0,
        0.0,
        0.0,
        1.0
      ],
      "name": "Sketchfab_model"
    },
    {
      "children": [
        2,
        3
      ],
      "name": "base.obj.cleaner.materialmerger.gles"
    },
    {
      "mesh": 0,
      "name": "Object_2"
    },
    {
      "mesh": 1,
      "name": "Object_3"
    }
  ],
  "samplers": [
    {
      "magFilter": 9729,
      "minFilter": 9987,
      "wrapS": 10497,
      "wrapT": 10497
    }
  ],
  "scene": 0,
  "scenes": [
    {
      "name": "Sketchfab_Scene",
      "nodes": [
        0
      ]
    }
  ],
  "textures": [
    {
      "sampler": 0,
      "source": 0
    },
    {
      "sampler": 0,
      "source": 1
    },
    {
      "sampler": 0,
      "source": 2
    }
  ]
}
